<svg width="30" height="30" viewBox="0 0 30 30" fill="none" xmlns="http://www.w3.org/2000/svg">
<path d="M30.0067 15.0049C30.0067 22.5828 24.3911 28.8476 17.0961 29.8643C16.414 29.9589 15.7161 30.0083 15.0077 30.0083C14.1901 30.0083 13.3871 29.9431 12.6051 29.817C5.46353 28.6668 0.00878906 22.4724 0.00878906 15.0049C0.00878906 6.71844 6.72474 0.000518799 15.0088 0.000518799C23.2928 0.000518799 30.0088 6.71844 30.0088 15.0049H30.0067Z" fill="#414141"/>
<path d="M17.0963 12.0486V15.3172H21.1385L20.4984 19.7201H17.0963V29.8643C16.4142 29.9589 15.7164 30.0083 15.008 30.0083C14.1903 30.0083 13.3873 29.9431 12.6054 29.817V19.7201H8.87744V15.3172H12.6054V11.318C12.6054 8.83687 14.616 6.82465 17.0974 6.82465V6.82675C17.1047 6.82675 17.111 6.82465 17.1184 6.82465H21.1396V10.6325H18.512C17.7311 10.6325 17.0974 11.2665 17.0974 12.0476L17.0963 12.0486Z" fill="white"/>
</svg>
