<svg width="30" height="30" viewBox="0 0 30 30" fill="none" xmlns="http://www.w3.org/2000/svg">
<path d="M15.0429 0H14.9746C6.70923 0 0.00878906 6.70241 0.00878906 14.9703V15.0386C0.00878906 23.3064 6.70923 30.0088 14.9746 30.0088H15.0429C23.3084 30.0088 30.0088 23.3064 30.0088 15.0386V14.9703C30.0088 6.70241 23.3084 0 15.0429 0Z" fill="#414141"/>
<path d="M19.6505 6.10522H10.3677C7.80312 6.10522 5.7168 8.19216 5.7168 10.7575V19.2524C5.7168 21.8177 7.80312 23.9047 10.3677 23.9047H19.6505C22.2151 23.9047 24.3014 21.8177 24.3014 19.2524V10.7575C24.3014 8.19216 22.2151 6.10522 19.6505 6.10522ZM7.35748 10.7575C7.35748 9.09738 8.70807 7.74639 10.3677 7.74639H19.6505C21.3101 7.74639 22.6607 9.09738 22.6607 10.7575V19.2524C22.6607 20.9125 21.3101 22.2635 19.6505 22.2635H10.3677C8.70807 22.2635 7.35748 20.9125 7.35748 19.2524V10.7575Z" fill="white"/>
<path d="M15.0092 19.3313C17.394 19.3313 19.3353 17.3905 19.3353 15.0039C19.3353 12.6173 17.3951 10.6765 15.0092 10.6765C12.6233 10.6765 10.6831 12.6173 10.6831 15.0039C10.6831 17.3905 12.6233 19.3313 15.0092 19.3313ZM15.0092 12.3187C16.4901 12.3187 17.6946 13.5236 17.6946 15.0049C17.6946 16.4863 16.4901 17.6912 15.0092 17.6912C13.5283 17.6912 12.3238 16.4863 12.3238 15.0049C12.3238 13.5236 13.5283 12.3187 15.0092 12.3187Z" fill="white"/>
<path d="M19.7359 11.3757C20.3781 11.3757 20.9015 10.8531 20.9015 10.2097C20.9015 9.56629 20.3792 9.04376 19.7359 9.04376C19.0927 9.04376 18.5703 9.56629 18.5703 10.2097C18.5703 10.8531 19.0927 11.3757 19.7359 11.3757Z" fill="white"/>
</svg>
