<svg width="30" height="30" viewBox="0 0 30 30" fill="none" xmlns="http://www.w3.org/2000/svg">
<path d="M15.0385 0.148315H14.9702C6.70724 0.148315 0.00878906 6.78448 0.00878906 14.9706V15.0383C0.00878906 23.2244 6.70724 29.8605 14.9702 29.8605H15.0385C23.3015 29.8605 29.9999 23.2244 29.9999 15.0383V14.9706C29.9999 6.78448 23.3015 0.148315 15.0385 0.148315Z" fill="#414141"/>
<path d="M5.68883 14.498C5.73086 14.4772 5.77291 14.4574 5.81389 14.4387C6.52629 14.1118 7.24815 13.8058 7.96895 13.4997C8.00783 13.4997 8.07296 13.455 8.10973 13.4404C8.16542 13.4165 8.22112 13.3936 8.27681 13.3696C8.38399 13.3238 8.49117 13.279 8.59729 13.2332C8.81164 13.1427 9.02493 13.0521 9.23928 12.9616L10.5222 12.4171C11.3775 12.0549 12.2339 11.6916 13.0892 11.3293C13.9445 10.9671 14.8008 10.6038 15.6561 10.2415C16.5114 9.87926 17.3678 9.51597 18.2231 9.15371C19.0784 8.79146 19.9347 8.42816 20.79 8.0659C20.9802 7.98471 21.1862 7.86395 21.39 7.82856C21.5613 7.79837 21.7283 7.74008 21.9006 7.70781C22.2274 7.64639 22.5878 7.62141 22.901 7.7557C23.0092 7.80254 23.109 7.86812 23.192 7.95036C23.5892 8.33968 23.5335 8.97882 23.4494 9.52637C22.8642 13.3425 22.2789 17.1598 21.6926 20.9759C21.6127 21.4995 21.5035 22.0741 21.0863 22.4052C20.7333 22.6852 20.231 22.7164 19.795 22.5978C19.3589 22.478 18.9744 22.2272 18.5971 21.9805C17.0326 20.9541 15.467 19.9277 13.9025 18.9013C13.5305 18.6577 13.1165 18.3392 13.1207 17.8968C13.1228 17.6303 13.2836 17.3929 13.4475 17.1816C14.8071 15.4245 16.7689 14.217 18.2283 12.541C18.4343 12.3047 18.5961 11.8779 18.3134 11.7415C18.1453 11.6603 17.952 11.7707 17.7986 11.8758C15.8694 13.2031 13.9413 14.5313 12.0122 15.8586C11.3828 16.2916 10.7229 16.7371 9.9643 16.8433C9.28552 16.9391 8.60255 16.7517 7.94584 16.5602C7.39525 16.3999 6.8457 16.2354 6.29827 16.0657C6.00721 15.9762 5.7067 15.8794 5.48184 15.6764C5.25698 15.4734 5.12776 15.132 5.26331 14.8613C5.34842 14.6916 5.51338 14.5844 5.68676 14.497L5.68883 14.498Z" fill="#FEFFFC"/>
</svg>
