<svg width="30" height="30" viewBox="0 0 30 30" fill="none" xmlns="http://www.w3.org/2000/svg">
<path d="M30.0088 15.0044C30.0088 6.71771 23.2931 0 15.0088 0C6.72453 0 0.00878906 6.71771 0.00878906 15.0044C0.00878906 23.2911 6.72453 30.0088 15.0088 30.0088C23.2931 30.0088 30.0088 23.2911 30.0088 15.0044Z" fill="#414141"/>
<path d="M24.4542 11.8952C24.3361 10.7554 24.0821 9.49547 23.1472 8.83334C22.4231 8.31987 21.4713 8.30089 20.5827 8.30195C18.7044 8.30195 16.8251 8.30511 14.9468 8.30617C13.1401 8.30828 11.3335 8.30933 9.5269 8.31144C8.77221 8.31144 8.03859 8.25345 7.33766 8.5803C6.7358 8.86075 6.26465 9.39426 5.98111 9.98785C5.58796 10.8134 5.50575 11.7486 5.45832 12.6617C5.37083 14.3244 5.38032 15.9913 5.48467 17.653C5.56161 18.8655 5.75661 20.2055 6.69364 20.9784C7.52423 21.6626 8.69631 21.6964 9.77354 21.6974C13.1928 21.7006 16.6132 21.7038 20.0335 21.7059C20.472 21.7069 20.9295 21.6985 21.3764 21.65C22.2555 21.5551 23.0934 21.3031 23.6584 20.6515C24.2286 19.9947 24.3751 19.0805 24.4616 18.2149C24.6724 16.1147 24.6703 13.9944 24.4542 11.8952ZM12.9694 17.9482V12.0596L18.0667 15.0034L12.9694 17.9482Z" fill="white"/>
</svg>
