<svg width="148" height="41" viewBox="0 0 148 41" fill="none" xmlns="http://www.w3.org/2000/svg">
<path d="M31 12.5C37.6274 12.5 43 7.12742 43 0.5L25 0.500001C18.3726 0.500001 13 5.87258 13 12.5H31Z" fill="#F5A70D"/>
<path d="M43 28.5C43 35.1274 37.6274 40.5 31 40.5V22.5C31 15.8726 36.3726 10.5 43 10.5V28.5Z" fill="#1CD951"/>
<path d="M12 28.5C5.37258 28.5 -3.44544e-07 33.8726 5.24537e-07 40.5H18C24.6274 40.5 30 35.1274 30 28.5L12 28.5Z" fill="#ED38DB"/>
<path d="M0 12.5C-5.79387e-07 5.87258 5.37258 0.500001 12 0.5L12 18.5C12 25.1274 6.62742 30.5 1.57361e-06 30.5L0 12.5Z" fill="#A009C6"/>
<path d="M63.8977 18.9432C63.8977 20.2121 63.6572 21.2917 63.1761 22.1818C62.6989 23.072 62.0473 23.7519 61.2216 24.2216C60.3996 24.6875 59.4754 24.9205 58.4489 24.9205C57.4148 24.9205 56.4867 24.6856 55.6648 24.2159C54.8428 23.7462 54.1932 23.0663 53.7159 22.1761C53.2386 21.286 53 20.2083 53 18.9432C53 17.6742 53.2386 16.5947 53.7159 15.7045C54.1932 14.8144 54.8428 14.1364 55.6648 13.6705C56.4867 13.2008 57.4148 12.9659 58.4489 12.9659C59.4754 12.9659 60.3996 13.2008 61.2216 13.6705C62.0473 14.1364 62.6989 14.8144 63.1761 15.7045C63.6572 16.5947 63.8977 17.6742 63.8977 18.9432ZM61.4034 18.9432C61.4034 18.1212 61.2803 17.428 61.0341 16.8636C60.7917 16.2992 60.4489 15.8712 60.0057 15.5795C59.5625 15.2879 59.0436 15.142 58.4489 15.142C57.8542 15.142 57.3352 15.2879 56.892 15.5795C56.4489 15.8712 56.1042 16.2992 55.858 16.8636C55.6155 17.428 55.4943 18.1212 55.4943 18.9432C55.4943 19.7652 55.6155 20.4583 55.858 21.0227C56.1042 21.5871 56.4489 22.0152 56.892 22.3068C57.3352 22.5985 57.8542 22.7443 58.4489 22.7443C59.0436 22.7443 59.5625 22.5985 60.0057 22.3068C60.4489 22.0152 60.7917 21.5871 61.0341 21.0227C61.2803 20.4583 61.4034 19.7652 61.4034 18.9432Z" fill="black"/>
<path d="M65.6747 28.0341V16.0341H68.0611V17.5H68.169C68.2751 17.2652 68.4285 17.0265 68.6293 16.7841C68.8338 16.5379 69.099 16.3333 69.4247 16.1705C69.7543 16.0038 70.1634 15.9205 70.652 15.9205C71.2884 15.9205 71.8755 16.0871 72.4134 16.4205C72.9512 16.75 73.3812 17.2481 73.7031 17.9148C74.0251 18.5777 74.1861 19.4091 74.1861 20.4091C74.1861 21.3826 74.0289 22.2045 73.7145 22.875C73.4039 23.5417 72.9796 24.0474 72.4418 24.392C71.9077 24.733 71.3092 24.9034 70.6463 24.9034C70.1766 24.9034 69.777 24.8258 69.4474 24.6705C69.1217 24.5152 68.8546 24.3201 68.6463 24.0852C68.438 23.8466 68.2789 23.6061 68.169 23.3636H68.0952V28.0341H65.6747ZM68.044 20.3977C68.044 20.9167 68.116 21.3693 68.2599 21.7557C68.4039 22.142 68.6122 22.4432 68.8849 22.6591C69.1577 22.8712 69.4891 22.9773 69.8793 22.9773C70.2732 22.9773 70.6065 22.8693 70.8793 22.6534C71.152 22.4337 71.3584 22.1307 71.4986 21.7443C71.6425 21.3542 71.7145 20.9053 71.7145 20.3977C71.7145 19.8939 71.6444 19.4508 71.5043 19.0682C71.3641 18.6856 71.1577 18.3864 70.8849 18.1705C70.6122 17.9545 70.277 17.8466 69.8793 17.8466C69.4853 17.8466 69.152 17.9508 68.8793 18.1591C68.6103 18.3674 68.4039 18.6629 68.2599 19.0455C68.116 19.428 68.044 19.8788 68.044 20.3977Z" fill="black"/>
<path d="M81.777 16.0341V17.9375H78.152V24.7614H75.7997V16.0341H81.777Z" fill="black"/>
<path d="M85.429 24.9261C84.8722 24.9261 84.3759 24.8295 83.9403 24.6364C83.5047 24.4394 83.16 24.1496 82.9062 23.767C82.6562 23.3807 82.5312 22.8996 82.5312 22.3239C82.5312 21.839 82.6203 21.4318 82.7983 21.1023C82.9763 20.7727 83.2187 20.5076 83.5256 20.3068C83.8324 20.1061 84.1809 19.9545 84.571 19.8523C84.965 19.75 85.3778 19.678 85.8097 19.6364C86.3172 19.5833 86.7263 19.5341 87.0369 19.4886C87.3475 19.4394 87.5729 19.3674 87.7131 19.2727C87.8532 19.178 87.9233 19.0379 87.9233 18.8523V18.8182C87.9233 18.4583 87.8097 18.1799 87.5824 17.983C87.3589 17.786 87.0407 17.6875 86.6278 17.6875C86.1922 17.6875 85.8456 17.7841 85.5881 17.9773C85.3305 18.1667 85.16 18.4053 85.0767 18.6932L82.8381 18.5114C82.9517 17.9811 83.1752 17.5227 83.5085 17.1364C83.8419 16.7462 84.2718 16.447 84.7983 16.2386C85.3286 16.0265 85.9422 15.9205 86.6392 15.9205C87.1241 15.9205 87.5881 15.9773 88.0312 16.0909C88.4782 16.2045 88.8741 16.3807 89.2188 16.6193C89.5672 16.858 89.8419 17.1648 90.0426 17.5398C90.2434 17.911 90.3438 18.3561 90.3438 18.875V24.7614H88.0483V23.5511H87.9801C87.84 23.8239 87.6525 24.0644 87.4176 24.2727C87.1828 24.4773 86.9006 24.6383 86.571 24.7557C86.2415 24.8693 85.8608 24.9261 85.429 24.9261ZM86.1222 23.2557C86.4782 23.2557 86.7926 23.1856 87.0653 23.0455C87.3381 22.9015 87.5521 22.7083 87.7074 22.4659C87.8627 22.2235 87.9403 21.9489 87.9403 21.642V20.7159C87.8646 20.7652 87.7604 20.8106 87.6278 20.8523C87.4991 20.8902 87.3532 20.9261 87.1903 20.9602C87.0275 20.9905 86.8646 21.0189 86.7017 21.0455C86.5388 21.0682 86.3911 21.089 86.2585 21.108C85.9744 21.1496 85.7263 21.2159 85.5142 21.3068C85.3021 21.3977 85.1373 21.5208 85.0199 21.6761C84.9025 21.8277 84.8438 22.017 84.8438 22.2443C84.8438 22.5739 84.9631 22.8258 85.2017 23C85.4441 23.1705 85.7509 23.2557 86.1222 23.2557Z" fill="black"/>
<path d="M98.2955 19.4318V21.3352H93.7386V19.4318H98.2955ZM94.5341 16.0341V24.7614H92.2216V16.0341H94.5341ZM99.8125 16.0341V24.7614H97.517V16.0341H99.8125Z" fill="black"/>
<path d="M104.179 24.9261C103.622 24.9261 103.126 24.8295 102.69 24.6364C102.255 24.4394 101.91 24.1496 101.656 23.767C101.406 23.3807 101.281 22.8996 101.281 22.3239C101.281 21.839 101.37 21.4318 101.548 21.1023C101.726 20.7727 101.969 20.5076 102.276 20.3068C102.582 20.1061 102.931 19.9545 103.321 19.8523C103.715 19.75 104.128 19.678 104.56 19.6364C105.067 19.5833 105.476 19.5341 105.787 19.4886C106.098 19.4394 106.323 19.3674 106.463 19.2727C106.603 19.178 106.673 19.0379 106.673 18.8523V18.8182C106.673 18.4583 106.56 18.1799 106.332 17.983C106.109 17.786 105.791 17.6875 105.378 17.6875C104.942 17.6875 104.596 17.7841 104.338 17.9773C104.08 18.1667 103.91 18.4053 103.827 18.6932L101.588 18.5114C101.702 17.9811 101.925 17.5227 102.259 17.1364C102.592 16.7462 103.022 16.447 103.548 16.2386C104.079 16.0265 104.692 15.9205 105.389 15.9205C105.874 15.9205 106.338 15.9773 106.781 16.0909C107.228 16.2045 107.624 16.3807 107.969 16.6193C108.317 16.858 108.592 17.1648 108.793 17.5398C108.993 17.911 109.094 18.3561 109.094 18.875V24.7614H106.798V23.5511H106.73C106.59 23.8239 106.402 24.0644 106.168 24.2727C105.933 24.4773 105.651 24.6383 105.321 24.7557C104.991 24.8693 104.611 24.9261 104.179 24.9261ZM104.872 23.2557C105.228 23.2557 105.543 23.1856 105.815 23.0455C106.088 22.9015 106.302 22.7083 106.457 22.4659C106.613 22.2235 106.69 21.9489 106.69 21.642V20.7159C106.615 20.7652 106.51 20.8106 106.378 20.8523C106.249 20.8902 106.103 20.9261 105.94 20.9602C105.777 20.9905 105.615 21.0189 105.452 21.0455C105.289 21.0682 105.141 21.089 105.009 21.108C104.724 21.1496 104.476 21.2159 104.264 21.3068C104.052 21.3977 103.887 21.5208 103.77 21.6761C103.652 21.8277 103.594 22.017 103.594 22.2443C103.594 22.5739 103.713 22.8258 103.952 23C104.194 23.1705 104.501 23.2557 104.872 23.2557Z" fill="black"/>
<path d="M113.284 21.5682L116.426 16.0341H118.812V24.7614H116.506V19.2102L113.375 24.7614H110.972V16.0341H113.284V21.5682ZM116.011 12.9886H117.699C117.695 13.678 117.439 14.233 116.932 14.6534C116.428 15.0739 115.746 15.2841 114.886 15.2841C114.023 15.2841 113.339 15.0739 112.835 14.6534C112.331 14.233 112.08 13.678 112.08 12.9886H113.756C113.752 13.25 113.835 13.4849 114.006 13.6932C114.18 13.9015 114.473 14.0057 114.886 14.0057C115.288 14.0057 115.576 13.9034 115.75 13.6989C115.924 13.4943 116.011 13.2576 116.011 12.9886Z" fill="black"/>
<path d="M120.304 22.2898H122.651C122.662 22.5777 122.791 22.8049 123.037 22.9716C123.283 23.1383 123.601 23.2216 123.991 23.2216C124.385 23.2216 124.717 23.1307 124.986 22.9489C125.255 22.7633 125.389 22.4981 125.389 22.1534C125.389 21.9413 125.336 21.7576 125.23 21.6023C125.124 21.4432 124.976 21.3182 124.787 21.2273C124.598 21.1364 124.378 21.0909 124.128 21.0909H122.872V19.5057H124.128C124.503 19.5057 124.791 19.4186 124.991 19.2443C125.196 19.0701 125.298 18.8523 125.298 18.5909C125.298 18.2955 125.192 18.0587 124.98 17.8807C124.772 17.6989 124.49 17.608 124.134 17.608C123.774 17.608 123.474 17.6894 123.236 17.8523C123.001 18.0114 122.88 18.2197 122.872 18.4773H120.537C120.545 17.9545 120.702 17.5019 121.009 17.1193C121.319 16.7367 121.736 16.4413 122.259 16.233C122.785 16.0246 123.374 15.9205 124.026 15.9205C124.738 15.9205 125.351 16.0208 125.866 16.2216C126.385 16.4186 126.783 16.7008 127.06 17.0682C127.34 17.4356 127.48 17.8731 127.48 18.3807C127.48 18.8428 127.329 19.2292 127.026 19.5398C126.723 19.8504 126.298 20.072 125.753 20.2045V20.2955C126.113 20.3182 126.438 20.4148 126.73 20.5852C127.022 20.7557 127.255 20.9905 127.429 21.2898C127.603 21.5852 127.69 21.9356 127.69 22.3409C127.69 22.8826 127.531 23.3466 127.213 23.733C126.899 24.1193 126.463 24.4167 125.906 24.625C125.353 24.8295 124.719 24.9318 124.003 24.9318C123.306 24.9318 122.681 24.8314 122.128 24.6307C121.579 24.4261 121.141 24.1269 120.815 23.733C120.493 23.339 120.323 22.858 120.304 22.2898Z" fill="black"/>
<path d="M133.152 24.9318C132.254 24.9318 131.482 24.75 130.834 24.3864C130.19 24.0189 129.694 23.5 129.345 22.8295C128.997 22.1553 128.822 21.358 128.822 20.4375C128.822 19.5398 128.997 18.7519 129.345 18.0739C129.694 17.3958 130.184 16.8674 130.817 16.4886C131.453 16.1099 132.199 15.9205 133.055 15.9205C133.631 15.9205 134.167 16.0133 134.663 16.1989C135.163 16.3807 135.599 16.6553 135.97 17.0227C136.345 17.3902 136.637 17.8523 136.845 18.4091C137.054 18.9621 137.158 19.6099 137.158 20.3523V21.017H129.788V19.517H134.879C134.879 19.1686 134.804 18.8599 134.652 18.5909C134.5 18.322 134.29 18.1117 134.021 17.9602C133.756 17.8049 133.447 17.7273 133.095 17.7273C132.728 17.7273 132.402 17.8125 132.118 17.983C131.838 18.1496 131.618 18.375 131.459 18.6591C131.3 18.9394 131.218 19.2519 131.214 19.5966V21.0227C131.214 21.4545 131.294 21.8277 131.453 22.142C131.616 22.4564 131.845 22.6989 132.141 22.8693C132.436 23.0398 132.786 23.125 133.192 23.125C133.461 23.125 133.707 23.0871 133.93 23.0114C134.154 22.9356 134.345 22.822 134.504 22.6705C134.663 22.5189 134.785 22.3333 134.868 22.1136L137.107 22.2614C136.993 22.7992 136.76 23.2689 136.408 23.6705C136.059 24.0682 135.608 24.3788 135.055 24.6023C134.506 24.822 133.872 24.9318 133.152 24.9318Z" fill="black"/>
<path d="M138.737 28.0341V16.0341H141.124V17.5H141.232C141.338 17.2652 141.491 17.0265 141.692 16.7841C141.896 16.5379 142.161 16.3333 142.487 16.1705C142.817 16.0038 143.226 15.9205 143.714 15.9205C144.351 15.9205 144.938 16.0871 145.476 16.4205C146.014 16.75 146.444 17.2481 146.766 17.9148C147.088 18.5777 147.249 19.4091 147.249 20.4091C147.249 21.3826 147.091 22.2045 146.777 22.875C146.466 23.5417 146.042 24.0474 145.504 24.392C144.97 24.733 144.372 24.9034 143.709 24.9034C143.239 24.9034 142.839 24.8258 142.51 24.6705C142.184 24.5152 141.917 24.3201 141.709 24.0852C141.5 23.8466 141.341 23.6061 141.232 23.3636H141.158V28.0341H138.737ZM141.107 20.3977C141.107 20.9167 141.179 21.3693 141.322 21.7557C141.466 22.142 141.675 22.4432 141.947 22.6591C142.22 22.8712 142.552 22.9773 142.942 22.9773C143.336 22.9773 143.669 22.8693 143.942 22.6534C144.214 22.4337 144.421 22.1307 144.561 21.7443C144.705 21.3542 144.777 20.9053 144.777 20.3977C144.777 19.8939 144.707 19.4508 144.567 19.0682C144.427 18.6856 144.22 18.3864 143.947 18.1705C143.675 17.9545 143.339 17.8466 142.942 17.8466C142.548 17.8466 142.214 17.9508 141.942 18.1591C141.673 18.3674 141.466 18.6629 141.322 19.0455C141.179 19.428 141.107 19.8788 141.107 20.3977Z" fill="black"/>
</svg>
